# xmcd
#
# Track frame offsets:
#	150
#	13379
#	31788
#	48949
#	72193
#	98269
#	116599
#	133999
#	147246
#	167888
#	185127
#	196612
#
# Disc length: 2862 seconds
#
# Revision: 1
# Processed by: cddbd v1.5.2PL0 Copyright (c) Steve Scherf et al.
# Submitted via: audiograbber 1.83.01
#
DISCID=a40b2c0c
DTITLE=Bruce Henderson - Beyond The Pale
DYEAR=2000
DGENRE=Singer/Songwriter
TTITLE0=August
TTITLE1=Speed Rack
TTITLE2=Bone Tired
TTITLE3=I Wanted To
TTITLE4=I Never Lost An Arm
TTITLE5=Look At You Now
TTITLE6=Flatlands
TTITLE7=Wash It All Away
TTITLE8=Running Out Of Light
TTITLE9=Mexico
TTITLE10=Swimming Through The Ashes
TTITLE11=Texas Or New Mexico
EXTD=
EXTT0=
EXTT1=
EXTT2=
EXTT3=
EXTT4=
EXTT5=
EXTT6=
EXTT7=
EXTT8=
EXTT9=
EXTT10=
EXTT11=
PLAYORDER=
